<svg xmlns="http://www.w3.org/2000/svg" width="66.4" height="66.4" viewBox="0 0 66.4 66.4"><path d="M13.487,29.05H3.112A3.112,3.112,0,0,0,0,32.162V63.287A3.112,3.112,0,0,0,3.112,66.4H13.487A3.112,3.112,0,0,0,16.6,63.287V32.162A3.112,3.112,0,0,0,13.487,29.05ZM8.3,61.212A3.112,3.112,0,1,1,11.412,58.1,3.112,3.112,0,0,1,8.3,61.212ZM49.8,10.563c0,5.5-3.368,8.586-4.316,12.262H58.677A7.749,7.749,0,0,1,66.4,30.36a9.39,9.39,0,0,1-2.521,6.38l-.014.014A10.833,10.833,0,0,1,62.657,47.06a10.255,10.255,0,0,1-2.125,9.7,6.885,6.885,0,0,1-.8,5.788c-2.647,3.8-9.207,3.857-14.755,3.857h-.369c-6.262,0-11.387-2.282-15.505-4.114-2.069-.921-4.775-2.06-6.828-2.1a1.557,1.557,0,0,1-1.528-1.556V30.908a1.555,1.555,0,0,1,.461-1.105c5.137-5.076,7.347-10.451,11.557-14.669,1.92-1.924,2.618-4.829,3.293-7.639.577-2.4,1.783-7.5,4.4-7.5C43.575,0,49.8,1.037,49.8,10.563Z" fill="#0da64a"/></svg>